<svg width="180" height="120" viewBox="0 0 180 120" xmlns="http://www.w3.org/2000/svg" role="img" aria-labelledby="pantaleonLogoTitle pantaleonLogoDesc">
  <title id="pantaleonLogoTitle">Logotipo de Pantaleon</title>
  <desc id="pantaleonLogoDesc">Figura geométrica en color naranja con ocho rectángulos alrededor de un cuadrado central.</desc>
  <g transform="translate(60 20)">
    <rect x="24" y="24" width="16" height="16" fill="#f58220" rx="1" />
    <rect x="24" width="16" height="18" fill="#f58220" rx="1" />
    <rect x="24" y="46" width="16" height="18" fill="#f58220" rx="1" />
    <rect x="46" y="24" width="18" height="16" fill="#f58220" rx="1" />
    <rect x="0" y="24" width="18" height="16" fill="#f58220" rx="1" />
    <rect x="7" y="7" width="18" height="16" fill="#f58220" rx="1" transform="rotate(-45 16 15)" />
    <rect x="39" y="39" width="18" height="16" fill="#f58220" rx="1" transform="rotate(-45 48 47)" />
    <rect x="7" y="39" width="18" height="16" fill="#f58220" rx="1" transform="rotate(45 16 47)" />
    <rect x="39" y="7" width="18" height="16" fill="#f58220" rx="1" transform="rotate(45 48 15)" />
  </g>
  <text x="110" y="70" font-family="'Segoe UI', 'Helvetica Neue', Arial, sans-serif" font-size="28" fill="#4d4d4d" text-anchor="start">Pantaleon</text>
</svg>
